<svg width="24" height="25" viewBox="0 0 24 25" fill="none" xmlns="http://www.w3.org/2000/svg">
<path fill-rule="evenodd" clip-rule="evenodd" d="M12 21.5C16.9706 21.5 21 17.4706 21 12.5C21 7.52944 16.9706 3.5 12 3.5C7.02944 3.5 3 7.52944 3 12.5C3 16.9358 6.20911 20.6221 10.4323 21.3639V15.2524H8.1427V12.7122H10.4323V10.7762C10.4323 8.57405 11.778 7.35716 13.8386 7.35716C14.8249 7.35716 15.857 7.5288 15.857 7.5288V9.69142H14.7192C13.5991 9.69142 13.2503 10.3694 13.2503 11.0645V12.7122H15.7513L15.3515 15.2524H13.2503V21.3936C12.8167 21.46 12.3736 21.4958 11.9225 21.4997C11.9483 21.4999 11.9742 21.5 12 21.5Z" fill="white"/>
</svg>
