<svg width="24" height="25" viewBox="0 0 24 25" fill="none" xmlns="http://www.w3.org/2000/svg">
<path fill-rule="evenodd" clip-rule="evenodd" d="M3 12.5C3 8.25736 3 6.13604 4.31802 4.81802C5.63604 3.5 7.75736 3.5 12 3.5C16.2426 3.5 18.364 3.5 19.682 4.81802C21 6.13604 21 8.25736 21 12.5C21 16.7426 21 18.864 19.682 20.182C18.364 21.5 16.2426 21.5 12 21.5C7.75736 21.5 5.63604 21.5 4.31802 20.182C3 18.864 3 16.7426 3 12.5ZM12 15.5C13.6569 15.5 15 14.1569 15 12.5C15 10.8431 13.6569 9.5 12 9.5C10.3431 9.5 9 10.8431 9 12.5C9 14.1569 10.3431 15.5 12 15.5ZM12 17.5C14.7614 17.5 17 15.2614 17 12.5C17 9.73858 14.7614 7.5 12 7.5C9.23858 7.5 7 9.73858 7 12.5C7 15.2614 9.23858 17.5 12 17.5ZM17.5 8.5C18.3284 8.5 19 7.82843 19 7C19 6.17157 18.3284 5.5 17.5 5.5C16.6716 5.5 16 6.17157 16 7C16 7.82843 16.6716 8.5 17.5 8.5Z" fill="white"/>
</svg>
